<svg version="1.2" xmlns="http://www.w3.org/2000/svg" viewBox="0 0 800 230" width="800" height="230"><style>.a{fill:#2c2c2c}.b{fill:#eee}</style><path class="a" d="m748 2c27.6 0 50 22.4 50 50v176h-746c-27.6 0-50-22.4-50-50v-176z"/><path class="b" d="m121.3 84.6h32.6c-0.1-24.6-19.1-40.9-49.6-40.9-29.8 0-50.9 16-50.7 40-0.1 19.6 13.5 30.5 35.8 35.3l12.5 2.7c14 3.1 18.8 6.5 18.9 12.3-0.1 6.1-5.8 10.5-16.7 10.5-13.1 0-20.8-6.1-21.4-17.7h-32.3c0.1 31.6 21.4 45.7 54.2 45.7 31.8 0 50.9-13.8 51-38.5-0.1-19.2-11.5-32.6-39.2-38.6l-10.3-2.2c-11.9-2.5-17.3-6-17-12 0.1-5.5 4.7-9.6 15.2-9.6 11.1 0 16.3 4.9 17 13zm93 88.1c26.1 0 42.9-12.5 46.1-32.1h-30.9c-2 5.3-7.6 8.3-14.5 8.3-10.1 0-16-6.6-16-15.7v-1.5h61.4v-7.8c0-30-18.4-48.3-46.9-48.3-29.2 0-47.8 19.3-47.8 48.5 0 30.5 18.4 48.6 48.6 48.6zm-15.3-59.6c0.2-8.2 7-13.7 15.3-13.7 8.4 0 14.7 5.6 14.9 13.7zm120.5 59.6c27.9 0 45-16 45.4-41h-31.4c-0.8 9.9-6.1 15.3-13.5 15.3-8.9 0-14.7-7.7-14.7-23.1 0-15.5 5.8-23.1 14.7-23.1 7.5 0 12.6 5.4 13.5 15.2h31.4c-0.2-24.5-17.7-40.4-45.4-40.4-30.7 0-48.8 19.6-48.8 48.5 0 29 18.1 48.6 48.8 48.6zm59.4-1.7h33.8v-49.1c0-10.8 7.4-17.9 17.4-17.9 3.5 0 9.2 0.6 12.6 1.7v-28.9c-2.7-0.8-5.7-1.2-8.6-1.2-10.1 0-17.9 5.8-21.4 19.1h-1v-17.9h-32.8zm114.5 1.7c26.2 0 43-12.5 46.2-32.1h-30.9c-2 5.3-7.6 8.3-14.5 8.3-10.1 0-16-6.6-16-15.7v-1.5h61.4v-7.8c0-30-18.4-48.4-46.9-48.4-29.2 0-47.8 19.4-47.8 48.6 0 30.5 18.4 48.6 48.5 48.6zm-15.2-59.6c0.2-8.2 7-13.8 15.2-13.8 8.4 0 14.8 5.7 15 13.8zm131.3-36.3h-16.2v-22.6h-33.9v22.6h-12v24.5h12v42.6c-0.2 19.7 12 29.7 35.4 28.4 7.6-0.4 13.3-2 16.4-2.9l-4.9-23.8c-1.3 0.3-4.6 1-6.6 1-4.5 0-6.4-2-6.4-5.9v-39.4h16.2zm31.9-9.9q0 2.9-1 5.8-1.1 3-2.6 5.7-1.6 2.6-3.5 5.2-1.9 2.4-3.6 4.7 0.5-1.6 1.2-3.6 0.9-2.1 1.7-4.4 0.9-2.2 1.4-4.3 0.7-2.1 0.7-3.4 0-3.3-1.6-5.4-1.5-2.2-3.9-3.8-2.3-1.5-5-2.6-2.8-1-5.2-2.1 5.2-2.4 10.2-5 5.2-2.7 9.6-6.5-0.1 1-0.1 2.2 0 1.1 0 2.1 0 4 0.8 7.8 0.9 3.6 0.9 7.6zm105.8 40.6c-0.9-20-17.5-31.9-44.7-31.9-26.9 0-43.5 11-43.4 30.6-0.1 14.9 9.5 24.4 28.7 27.8l16.7 2.9c7.3 1.4 10.6 3.3 10.8 6.9-0.2 3.9-4.6 6.1-10.8 6.1-7.7 0-13.1-3.3-14-9.3h-33.6c1.8 19.3 18.5 32.1 47.3 32.1 26.1 0 45.3-12.7 45.4-32.8-0.1-14-9.4-22.1-28.7-25.6l-19.1-3.4c-7.2-1.3-9.2-3.9-9.1-6.6-0.1-3.9 4.7-6.1 10.5-6.1 6.7 0 12.3 3.5 12.8 9.3z"/></svg>