<svg version="1.2" xmlns="http://www.w3.org/2000/svg" width="303" height="204" baseProfile="tiny-ps"><path class="prefix__a" fill="#2c2c2c" d="M97.1 59.6H72.2v-6c0-6.4 2.5-10.7 11.8-10.7 3.5 0 8.8.8 12.4 1.8l7.1-35.1c-5.7-1.5-18.8-3.9-31.3-3.9-29.8 0-49 16.3-49 50v3.9H5.8v35.5h17.4V196h49V95.1h24.9zM134.7 196h49v-71c0-15.6 10.7-25.9 25.2-25.9 5.1 0 13.2.8 18.1 2.5V59.7c-3.9-1.1-8.2-1.8-12.4-1.8-14.6 0-25.9 8.5-30.9 27.7h-1.4v-26h-47.6z"/><path class="prefix__b" fill="#8286ff" d="M272.7 198.8c13.1 0 24.7-11 24.9-24.8-.2-13.5-11.8-24.5-24.9-24.5-13.7 0-25 11-24.8 24.5-.2 13.8 11.1 24.8 24.8 24.8z"/></svg>