<svg version="1.2" xmlns="http://www.w3.org/2000/svg" width="776" height="204"><path d="M97.1 59.6H72.2v-6c0-6.4 2.5-10.7 11.8-10.7 3.5 0 8.8.8 12.4 1.8l7.1-35.1c-5.7-1.5-18.8-3.9-31.3-3.9-29.8 0-49 16.3-49 50v3.9H5.8v35.5h17.4V196h49V95.1h24.9zM134.7 196h49v-71c0-15.6 10.7-25.9 25.2-25.9 5.1 0 13.2.8 18.1 2.5V59.7c-3.9-1.1-8.2-1.8-12.4-1.8-14.6 0-25.9 8.5-30.9 27.7h-1.4v-26h-47.6zm184.9 2.5c44.4 0 70.7-28.4 70.7-70.3S364 57.9 319.6 57.9c-44.4 0-70.6 28.4-70.6 70.3s26.2 70.3 70.6 70.3zm.4-36.2c-13.2 0-21-13-21-34.4s7.8-34.5 21-34.5c12.4 0 20.2 13.1 20.2 34.5s-7.8 34.4-20.2 34.4zM428.9 196h49v-71c0-15.6 10.8-25.9 25.2-25.9 5.1 0 13.3.8 18.2 2.5V59.8c-4-1.2-8.2-1.9-12.5-1.9-14.5 0-25.9 8.5-30.9 27.7h-1.4V59.7h-47.6zm184.6 2.5c37.8 0 62.2-18.1 66.8-46.6h-44.8c-2.8 7.8-10.9 12.1-20.9 12.1-14.6 0-23.1-9.6-23.1-22.7v-2.1h88.8v-11.4c0-43.4-26.7-70-67.9-70-42.2 0-69.2 28.1-69.2 70.4 0 44.1 26.6 70.3 70.3 70.3zm-22-86.3c.3-11.8 10-19.9 22-19.9 12.2 0 21.4 8.2 21.7 19.9z" fill="#2c2c2c"/><path d="M745.5 198.8c13.1 0 24.7-11 24.9-24.8-.2-13.5-11.8-24.5-24.9-24.5-13.7 0-25 11-24.8 24.5-.2 13.8 11.1 24.8 24.8 24.8z" fill="#8286ff"/></svg>