<svg version="1.2" xmlns="http://www.w3.org/2000/svg" viewBox="0 0 776 204" width="776" height="204"><style>.a{fill:#2c2c2c}</style><path class="a" d="m81.4 76h35.9c-0.1-27.1-21.1-45.1-54.5-45.1-32.9 0-56.1 17.7-55.9 44-0.1 21.6 14.9 33.6 39.4 38.9l13.8 3c15.4 3.3 20.6 7.2 20.8 13.4-0.2 6.9-6.4 11.7-18.4 11.7-14.4 0-22.9-6.8-23.5-19.5h-35.6c0.1 34.7 23.6 50.2 59.6 50.2 35.1 0 56-15.1 56.2-42.4-0.2-21-12.7-35.8-43.2-42.3l-11.3-2.5c-13.1-2.7-19-6.6-18.7-13.2 0.1-6.1 5.2-10.5 16.8-10.5 12.1 0 17.9 5.3 18.6 14.3zm102.3 96.9c28.7 0 47.2-13.8 50.7-35.4h-34c-2.1 5.9-8.3 9.2-15.9 9.2-11.1 0-17.6-7.3-17.6-17.3v-1.6h67.5v-8.6c0-33-20.2-53.2-51.5-53.2-32.1 0-52.7 21.3-52.7 53.5 0 33.5 20.3 53.4 53.5 53.4zm-16.8-65.6c0.3-9 7.7-15.1 16.8-15.1 9.2 0 16.2 6.2 16.4 15.1zm132.6 65.6c30.7 0 49.5-17.6 49.9-45.1h-34.6c-0.8 10.9-6.6 16.8-14.8 16.8-9.8 0-16.2-8.4-16.2-25.4 0-17 6.4-25.4 16.2-25.4 8.2 0 13.8 5.9 14.8 16.7h34.6c-0.2-26.9-19.4-44.5-49.9-44.5-33.8 0-53.7 21.6-53.7 53.5 0 31.8 19.9 53.4 53.7 53.4zm65.3-1.9h37.2v-54c0-11.9 8.2-19.7 19.2-19.7 3.8 0 10 0.6 13.7 1.9v-31.8c-2.9-0.8-6.2-1.4-9.4-1.4-11.1 0-19.7 6.5-23.5 21.1h-1.1v-19.7h-36.1zm126 1.9c28.8 0 47.2-13.8 50.7-35.4h-34c-2.1 5.9-8.3 9.2-15.9 9.2-11 0-17.5-7.3-17.5-17.3v-1.6h67.4v-8.7c0-32.9-20.2-53.1-51.5-53.1-32.1 0-52.6 21.3-52.6 53.4 0 33.5 20.2 53.5 53.4 53.5zm-16.7-65.6c0.2-9 7.6-15.1 16.7-15.1 9.3 0 16.3 6.2 16.5 15.1zm144.4-40h-17.9v-24.8h-37.2v24.8h-13.2v27h13.2v46.8c-0.3 21.8 13.2 32.8 38.9 31.3 8.4-0.4 14.7-2.2 18-3.2l-5.3-26.2c-1.5 0.4-5.1 1.1-7.3 1.1-4.9 0-7.1-2.1-7.1-6.5v-43.3h17.9zm35.1-10.9q0 3.2-1.2 6.4-1.1 3.3-2.8 6.3-1.7 2.9-3.8 5.7-2.1 2.7-4 5.1 0.6-1.7 1.3-3.9 1-2.3 1.9-4.8 1-2.5 1.5-4.7 0.8-2.3 0.8-3.8 0-3.7-1.7-5.9-1.7-2.5-4.4-4.2-2.4-1.7-5.5-2.9-3-1.1-5.7-2.2 5.7-2.7 11.2-5.6 5.7-3 10.7-7.2-0.2 1.2-0.2 2.5 0 1.1 0 2.3 0 4.3 0.9 8.5 1 4 1 8.4zm116.3 44.7c-0.9-22-19.1-35.1-49.1-35.1-29.6 0-47.9 12.1-47.8 33.7-0.1 16.3 10.5 26.8 31.6 30.5l18.4 3.2c8.1 1.5 11.7 3.7 11.8 7.6-0.1 4.3-5 6.7-11.8 6.7-8.5 0-14.4-3.6-15.4-10.2h-37c2 21.2 20.4 35.3 52.1 35.3 28.7 0 49.8-13.9 49.9-36.1-0.1-15.3-10.4-24.2-31.6-28.1l-21-3.8c-7.9-1.4-10.1-4.2-10-7.3-0.1-4.3 5.2-6.7 11.6-6.7 7.4 0 13.5 3.9 14 10.3z"/></svg>